<svg width="8" height="17" viewBox="0 0 8 17" fill="none" xmlns="http://www.w3.org/2000/svg">
<path fill-rule="evenodd" clip-rule="evenodd" d="M6.979 0.939929H5.328C4.88872 0.897675 4.4455 0.952033 4.02933 1.09886C3.61316 1.2457 3.23408 1.48147 2.91856 1.79003C2.60305 2.09859 2.35872 2.47245 2.20265 2.88524C2.04659 3.29804 1.98254 3.7398 2.015 4.17992V5.98998H0.0149994L0.0209961 7.99999H2.01401L1.98399 16.01H5.01401V8.03002L6.752 7.99999L7.37601 5.98998H4.98199V3.92992C4.98184 3.79779 5.00995 3.66725 5.06441 3.54686C5.11887 3.42648 5.19842 3.31904 5.29776 3.23192C5.3971 3.1448 5.51392 3.08002 5.64038 3.04174C5.76684 3.00345 5.90003 2.99261 6.03101 3.01H6.96899L6.979 0.939929Z" fill="white"/>
</svg>
