<svg width="16" height="17" viewBox="0 0 16 17" fill="none" xmlns="http://www.w3.org/2000/svg">
<path fill-rule="evenodd" clip-rule="evenodd" d="M3.46399 1.91991C3.46424 2.16019 3.41356 2.39792 3.31528 2.61718C3.217 2.83644 3.07336 3.03244 2.89383 3.19213C2.71429 3.35182 2.50297 3.47165 2.27374 3.54369C2.04452 3.61574 1.80261 3.63837 1.564 3.6101C1.23585 3.57319 0.925425 3.44201 0.670258 3.23241C0.415091 3.02282 0.226102 2.74367 0.12616 2.42895C0.0262176 2.11422 0.0196198 1.77739 0.107117 1.45898C0.194614 1.14056 0.372468 0.854219 0.619202 0.634756C0.865935 0.415294 1.17097 0.271935 1.49741 0.222159C1.82385 0.172383 2.15772 0.218284 2.45865 0.354239C2.75958 0.490194 3.01467 0.710408 3.19308 0.988272C3.3715 1.26614 3.46559 1.5897 3.46399 1.91991ZM0 16.01V4.98998H3.01099V16.01H0ZM5.01901 4.98998H7.70001L8.021 6.1101C8.3798 5.59872 8.86695 5.1908 9.43344 4.92748C9.99993 4.66416 10.6257 4.55474 11.248 4.6101C13.469 4.6101 15.004 5.90009 15.004 9.10009V15.98H12.004V9.58007C12.0245 9.2798 11.9832 8.97848 11.8826 8.69481C11.7821 8.41115 11.6243 8.15117 11.4193 7.9309C11.2142 7.71063 10.9661 7.5346 10.6903 7.41405C10.4145 7.29351 10.117 7.23091 9.81601 7.22997C9.43429 7.23477 9.06362 7.35877 8.75592 7.58471C8.44822 7.81064 8.21888 8.12722 8.10001 8.48998C8.01348 8.76118 7.9759 9.0457 7.98901 9.33007V15.98H5.01199V4.98998H5.01901Z" fill="white"/>
</svg>
