<svg width="16" height="13" viewBox="0 0 16 13" fill="none" xmlns="http://www.w3.org/2000/svg">
<path fill-rule="evenodd" clip-rule="evenodd" d="M0.60901 1.17993C1.09601 1.44993 6.84699 5.19008 7.09799 5.33008C7.38151 5.46179 7.69037 5.53003 8.00299 5.53003C8.31562 5.53003 8.62447 5.46179 8.90799 5.33008C9.15899 5.19008 14.908 1.44993 15.397 1.17993C15.886 0.909932 16.347 0.0600586 15.451 0.0600586H0.550996C-0.340003 0.0600586 0.12101 0.909932 0.60901 1.17993ZM15.609 3.23999C15.055 3.53999 9.252 7.20989 8.909 7.38989C8.62548 7.52161 8.31662 7.58984 8.004 7.58984C7.69138 7.58984 7.38252 7.52161 7.099 7.38989C6.76 7.20989 0.956988 3.53999 0.398988 3.23999C0.00898847 3.02999 0.0130021 3.26996 0.0130021 3.45996V11.02C0.0514699 11.2688 0.168161 11.4988 0.346163 11.6768C0.524164 11.8548 0.754217 11.9715 1.00299 12.01H15C15.2489 11.9716 15.4791 11.855 15.6573 11.677C15.8354 11.499 15.9523 11.2689 15.991 11.02V3.45996C15.991 3.26996 15.994 3.02999 15.6 3.23999H15.609Z" fill="white"/>
</svg>
