<svg width="17" height="14" viewBox="0 0 17 14" fill="none" xmlns="http://www.w3.org/2000/svg">
<path fill-rule="evenodd" clip-rule="evenodd" d="M16.984 1.65987C16.3498 1.94541 15.6751 2.13099 14.984 2.20992C15.712 1.76496 16.2555 1.07279 16.515 0.259968C15.8333 0.670139 15.0849 0.95791 14.304 1.11007C13.8253 0.595272 13.2019 0.237491 12.5159 0.0841867C11.8299 -0.0691178 11.1136 -0.0108905 10.4613 0.251179C9.80905 0.513248 9.25154 0.966876 8.8623 1.5522C8.47307 2.13753 8.27041 2.82714 8.28101 3.52999C8.28067 3.8025 8.31085 4.07425 8.371 4.34005C6.98146 4.26554 5.6235 3.89726 4.38672 3.25948C3.14994 2.6217 2.06248 1.72872 1.19601 0.639851C0.886333 1.18195 0.723613 1.79556 0.723999 2.41988C0.721356 2.99937 0.861257 3.57077 1.13138 4.08345C1.4015 4.59614 1.79356 5.03458 2.27301 5.36007C1.71854 5.34945 1.17588 5.19786 0.696014 4.91988V4.96993C0.691559 5.78002 0.966978 6.56678 1.47571 7.19722C1.98444 7.82767 2.69526 8.26309 3.48801 8.42989C3.18955 8.51412 2.88113 8.55797 2.57101 8.56002C2.35071 8.56206 2.13088 8.5385 1.91599 8.48995C2.13205 9.18914 2.56235 9.80269 3.14606 10.2441C3.72976 10.6855 4.4374 10.9324 5.16901 10.9499C3.94136 11.9304 2.41612 12.463 0.845001 12.4599C0.567486 12.4635 0.290095 12.4467 0.0150146 12.4099C1.59973 13.4507 3.45507 14.0036 5.35101 14C6.66425 13.9978 7.96399 13.735 9.1749 13.2268C10.3858 12.7185 11.4838 11.975 12.4051 11.0393C13.3265 10.1035 14.0529 8.994 14.5423 7.77535C15.0317 6.5567 15.2743 5.25301 15.256 3.9399C15.256 3.7899 15.256 3.63995 15.246 3.48995C15.9269 2.9852 16.515 2.36592 16.984 1.65987Z" fill="white"/>
</svg>
